<svg width="950" height="650" xmlns="http://www.w3.org/2000/svg"><path d="M939.388 584.662l-.212-6.084-.224-6.13-.059-1.535-.03-.77-.007-.192-.02-1.721-.005-.08-.025-.32-.196-2.549-.795-10.236-.203-2.586-.305-3.355-.632-6.685-.654-6.649-.335-3.306-.405-3.05c-1.114-8.06-2.109-15.981-3.529-23.597-.67-3.81-1.29-7.556-1.986-11.208l-2.227-10.673c-1.37-6.941-3.093-13.424-4.544-19.416l-1.09-4.393c-.395-1.425-.783-2.814-1.16-4.17l-2.171-7.682c-.695-2.407-1.307-4.666-1.946-6.737-.66-2.064-1.264-3.961-1.81-5.675l-2.034-6.312a4.817 4.817 0 00-5.91-3.152l-157.067 44.76a4.815 4.815 0 00-3.421 5.513l.582 3.13.742 3.906c.255 1.425.456 2.986.713 4.636l.803 5.264c.138.926.301 1.87.43 2.846.11.978.224 1.98.341 3.002.438 4.092 1.09 8.479 1.382 13.182l.596 7.199c.152 2.462.229 4.986.36 7.539.34 5.098.275 10.406.373 15.76l.023 1.993-.07 1.765-.122 3.538-.096 3.539-.037 1.767-.107 2.544c-.145 3.425-.293 6.848-.439 10.259l-.108 2.555-.015.319-.003.078c.002.384-.03-3.042-.02-1.563l-.012.127-.047.504-.093 1.008-.363 4.012-.347 3.972c-.156 1.313-.312 2.62-.468 3.916-.334 2.591-.54 5.158-.952 7.659l-1.066 7.369-1.218 7.008c-.358 2.278-.837 4.473-1.264 6.597-.446 2.12-.8 4.178-1.263 6.132a10267.598 10267.598 0 01-1.888 8.17c-.197.715-.388 1.407-.575 2.079l-.32 1.194h192.104c2.575 0 4.72-2.02 4.817-4.593l.002-.046.492-11.006c.072-3.751.144-7.585.22-11.483.109-3.894-.01-7.852-.02-11.853-.023-2-.043-4.012-.065-6.034z" fill="#ae2012"/><path d="M889.437 383.035a4.819 4.819 0 002.564-6.533l-1.844-3.896c-.66-1.387-1.39-2.922-2.182-4.593-1.026-2.09-2.134-4.35-3.32-6.764-1.196-2.404-2.466-4.964-3.808-7.66-.68-1.403-1.347-2.56-2.047-3.876l-2.137-3.948c-1.464-2.684-2.962-5.49-4.568-8.363-1.66-2.841-3.375-5.781-5.138-8.803l-2.689-4.58-2.882-4.62-5.977-9.491c-4.28-6.308-8.54-12.905-13.297-19.325-1.167-1.616-2.342-3.239-3.518-4.866l-1.77-2.439-1.843-2.399-7.412-9.595c-2.518-3.166-5.124-6.265-7.677-9.376-1.29-1.545-2.542-3.112-3.859-4.622l-3.95-4.502c-1.314-1.49-2.622-2.976-3.923-4.453a131.175 131.175 0 00-3.944-4.352l-7.882-8.396c-2.592-2.748-5.275-5.33-7.829-7.912-2.572-2.568-5.071-5.09-7.624-7.432l-7.355-6.885c-2.364-2.229-4.779-4.253-7.028-6.258l-6.51-5.69-6.02-4.961-5.297-4.344c-1.639-1.337-3.206-2.496-4.588-3.576l-5.063-3.886a4.816 4.816 0 00-6.648.76L648.071 287.44a4.816 4.816 0 00.32 6.493l2.434 2.41c.877.88 1.882 1.813 2.913 2.903l3.334 3.524a5869.88 5869.88 0 013.794 3.988l4.056 4.567c1.395 1.606 2.92 3.2 4.372 4.978l4.534 5.45c1.585 1.836 3.098 3.83 4.664 5.845 1.55 2.028 3.207 4.028 4.764 6.172l4.744 6.511a69.672 69.672 0 012.356 3.359l2.329 3.428c.78 1.143 1.566 2.29 2.35 3.443.785 1.152 1.504 2.356 2.262 3.535 1.488 2.378 3.031 4.721 4.494 7.116l4.273 7.247 1.066 1.797.998 1.836 1.993 3.644c2.734 4.781 5.04 9.711 7.455 14.343l3.256 6.994 1.578 3.377 1.427 3.354c.944 2.196 1.86 4.336 2.75 6.402l2.373 6.063c.382.97.753 1.92 1.117 2.847.344.906.77 1.886 1 2.64l1.539 4.498 1.382 3.928 1.539 4.593 1.364 4.092a4.819 4.819 0 006.371 2.941l146.165-58.724z" fill="#e76f51"/><path d="M460.143 200.767l4.229.577 4.951.863 5.62.965c1.72.286 3.5.7 5.351 1.087l53.204-108.825-7.817-1.22c-1.756-.262-3.485-.562-5.207-.777l-5.103-.618-9.769-1.161-9.151-.785c-2.934-.224-5.732-.52-8.41-.648l-7.594-.373-6.668-.315-5.664-.091-6.084-.074a4.817 4.817 0 00-4.87 4.592l-4.85 101.29a4.817 4.817 0 004.155 5.009l3.677.504zM603.135 256.541c1.43 1.04 2.785 2.026 4.058 2.954l3.574 2.559c.478.329 1.267.927 1.912 1.406l1.896 1.416 3.455 2.578a4.817 4.817 0 006.909-1.222L694.4 160.424a4.815 4.815 0 00-1.624-6.826l-3.739-2.145-2.054-1.178-2.456-1.39c-1.976-1.09-4.114-2.266-6.398-3.524l-7.278-3.967-7.687-3.852c-2.69-1.312-5.433-2.772-8.376-4.097l-9.068-4.157c-3.091-1.459-6.354-2.784-9.665-4.174-3.325-1.362-6.67-2.85-10.165-4.163l-2.675-1.014L593.25 250c1.657 1.04 3.218 2.144 4.755 3.14 1.79 1.185 3.5 2.32 5.13 3.401z" fill="#f4a261"/><path d="M366.874 200.237c1.342-.177 2.66-.396 3.975-.535l3.896-.396 7.45-.773 6.985-.469 3.279-.224c1.066-.071 2.134-.162 3.049-.163l5.358-.14 4.694-.149 4.914-.032 4.311-.023a4.816 4.816 0 004.778-5.138l-6.253-95.417a4.817 4.817 0 00-5.408-4.47l-4.276.54c-1.502.19-3.166.403-4.977.634l-6.927 1.026-7.856 1.197c-1.416.2-2.72.465-4.088.723l-4.185.8-8.875 1.714c-3.044.694-6.193 1.412-9.43 2.148l-4.908 1.128c-1.654.388-3.314.861-4.997 1.296-3.359.895-6.789 1.81-10.278 2.738l-10.52 3.172c-1.771.548-3.562 1.066-5.342 1.652l-5.346 1.823-5.379 1.844c-1.8.612-3.602 1.227-5.38 1.928l-10.72 4.093c-3.563 1.394-7.067 2.94-10.579 4.402-1.75.746-3.506 1.465-5.236 2.231l-5.137 2.372-5.086 2.355c-1.687.78-3.367 1.55-5 2.397l-9.7 4.898c-3.185 1.597-6.22 3.359-9.236 4.981-3 1.653-5.952 3.23-8.736 4.928-2.8 1.66-5.524 3.277-8.158 4.84-2.643 1.541-5.093 3.206-7.495 4.71l-6.845 4.388-6.041 4.146-5.299 3.649c-1.635 1.127-3.081 2.245-4.414 3.211l-4.596 3.394a4.814 4.814 0 00-1.116 6.586l39.62 58.251a4.814 4.814 0 006.351 1.49l3.552-2.003c1.182-.654 2.462-1.427 3.906-2.179 1.443-.753 3.004-1.565 4.672-2.433l5.297-2.77 5.972-2.863c2.091-.974 4.212-2.09 6.5-3.063l7.03-3.085c2.389-1.1 4.92-2.062 7.48-3.088 2.574-.998 5.152-2.126 7.852-3.08 2.688-.97 5.422-1.954 8.189-2.951 1.372-.522 2.784-.963 4.2-1.414l4.256-1.37 4.282-1.385c1.439-.437 2.9-.829 4.35-1.247 2.913-.806 5.806-1.7 8.74-2.449l8.796-2.176c1.45-.386 2.924-.688 4.39-.99l4.376-.922 4.331-.919c1.44-.287 2.889-.51 4.318-.767l8.457-1.467 8.213-1.135z" fill="#e9c46a"/><path d="M96.713 275.551l-3.129 4.427-3.145 4.458c-1.047 1.493-2.027 3.042-3.046 4.566-2.009 3.068-4.064 6.112-6.032 9.214a76897.76 76897.76 0 00-5.757 9.373l-1.428 2.334-1.355 2.371-2.693 4.716c-3.658 6.212-6.835 12.563-10.064 18.595l-4.43 9.062-2.13 4.388-1.954 4.343-3.733 8.317c-1.124 2.72-2.212 5.346-3.255 7.867-1.023 2.53-2.057 4.922-2.938 7.245l-2.471 6.603-2.163 5.799-1.696 4.972-1.703 5.054a4.815 4.815 0 002.846 6.035l36.878 14.138c2.347.9 4.99-.15 6.075-2.418l1.918-4.012c.613-1.272 1.29-2.681 2.028-4.216l2.538-4.893c.904-1.742 1.864-3.599 2.877-5.555 1.021-1.95 2.197-3.95 3.363-6.062 1.182-2.1 2.413-4.29 3.687-6.557l4.158-6.887 2.162-3.587 2.33-3.607 4.808-7.423c3.467-4.909 6.859-10.08 10.691-15.066l2.819-3.793 1.413-1.904 1.48-1.862 5.93-7.464c2.016-2.46 4.108-4.858 6.14-7.275 1.032-1.2 2.021-2.425 3.076-3.591l3.157-3.484 3.125-3.453a85.702 85.702 0 013.14-3.368l6.27-6.493c2.054-2.13 4.199-4.105 6.223-6.101 2.04-1.983 4.013-3.939 6.045-5.731l5.825-5.3c1.866-1.723 3.788-3.26 5.564-4.803l5.13-4.37 4.544-3.597 3.972-3.164c.564-.465 1.326-1.023 1.97-1.513l1.891-1.426a4604.71 4604.71 0 013.44-2.596 4.816 4.816 0 00.758-6.976l-41.988-49.188a4.816 4.816 0 00-7.008-.348l-3.104 2.991-1.705 1.642c-.607.59-1.185 1.127-1.938 1.896l-4.66 4.702c-1.654 1.68-3.415 3.466-5.272 5.35l-5.435 5.885c-1.87 2.067-3.886 4.149-5.837 6.431-1.959 2.271-3.983 4.62-6.065 7.032-2.107 2.384-4.146 4.945-6.244 7.543-2.082 2.612-4.277 5.219-6.37 7.98a19133.9 19133.9 0 00-6.358 8.413 108.433 108.433 0 00-3.165 4.341z" fill="#2a9d8f"/><path d="M20.415 448.011l-.859 4.225-.989 4.867c-.353 1.811-.698 3.95-1.083 6.132l-1.207 7.022c-.205 1.232-.44 2.505-.635 3.79l-.53 3.911c-.688 5.333-1.595 11.07-2.117 17.2l-.932 9.397c-.262 3.21-.437 6.498-.663 9.831-.528 6.66-.625 13.569-.845 20.557l-.071 2.627.012 2.637a215354.357 215354.357 0 01.061 10.603l.017 2.657.101 2.659.432 10.6.108 2.636.034.854.046.636.094 1.27.374 5.066.37 5.025.505 5.192.505 5.124.252 2.531.313 2.473 1.227 9.654c.484 3.14.958 6.213 1.417 9.204.43 2.99.985 5.881 1.495 8.677l.125.667a4.819 4.819 0 004.739 3.942h12.997a4.822 4.822 0 004.815-5.106c-.044-.74-.09-1.486-.14-2.24-.161-2.695-.357-5.475-.42-8.343l-.288-8.811a39309.393 39309.393 0 01-.07-11.544l.051-2.332.104-4.706.105-4.757.234-5.033.236-5.073.06-1.274.029-.638.004-.08c0-.203.004.187.006.12l.012-.154.024-.308.198-2.467.789-9.894.201-2.47.285-2.466.567-4.916.562-4.892.279-2.433.36-2.416c.99-6.425 1.831-12.746 3.064-18.797.578-3.032 1.095-6.014 1.689-8.918l1.893-8.475c1.138-5.516 2.614-10.644 3.815-15.398l.903-3.483c.311-1.118.647-2.176.956-3.225l1.77-5.925c.568-1.876 1.034-3.553 1.578-5.236l1.566-4.713 1.358-4.094a4.816 4.816 0 00-3.336-6.172l-32.584-8.689a4.817 4.817 0 00-5.968 3.692z" fill="#264653"/><path d="M389.252 616.897c10.601 5.182 22.066 6.696 33.122 6.696 27.752 0 54.186-14.519 67.195-41.13 2.506-5.123 4.445-10.778 5.706-16.104l75.865-329.285 28.892-125.403 17.9-77.684c2.082-9.04-5.11-15.2-12.325-15.2-4.223 0-8.456 2.112-10.842 6.99l-36.423 74.502-53.731 109.906L356.816 523.58c-14.183 38.154-4.774 75.125 32.436 93.316zm39.667-115.04c41.301 1 36.513 57.268 34.523 77.05-.996 9.892-26.55 36.258-50.77 39.277-24.22 3.019-47.102-17.31-42.753-100.81 16.242-14.063 17.7-16.517 59-15.517z" fill="bisque"/><path fill="#F09F34" d="M404.487 492.724c-25.802 4.025-46.758 22.137-52.745 45.694-2.709 10.181-2.709 29.359 0 39.658 5.845 22.847 25.232 39.42 51.89 44.156 18.39 3.196 39.63 1.302 54.313-4.854 10.55-4.498 21.526-13.85 26.8-23.32 6.13-10.418 5.988-11.365-1.853-12.076-3.564-.355-9.266-.947-12.687-1.42l-6.415-.592-3.992 6.63c-7.84 13.376-22.95 20.48-41.055 19.295-22.81-1.539-37.777-14.442-41.769-35.869l-1.283-6.51h115.042v-9.235c0-11.364-3.992-25.096-10.122-34.685-5.274-8.05-17.962-18.467-27.228-22.137-14.113-5.682-32.074-7.458-48.896-4.735zm30.222 18.112c7.983 2.012 19.245 9.47 22.808 15.27 2.566 4.026 6.13 14.325 6.13 17.521 0 2.013-2.993 2.131-43.336 2.131h-43.194l1.283-6.156c3.136-14.324 14.683-25.333 31.077-29.476 5.987-1.421 17.676-1.184 25.232.71z"/></svg>